<svg width="31" height="32" viewBox="0 0 31 32" fill="none" xmlns="http://www.w3.org/2000/svg">
<path d="M25.4882 10.5477C25.1583 10.4205 24.8256 10.3026 24.4904 10.1943C24.5467 9.93566 24.5985 9.6802 24.6445 9.42922C25.3999 5.30785 24.9061 1.98759 23.2194 0.894406C21.6022 -0.153596 18.9573 0.939184 16.2863 3.55197C16.023 3.80994 15.7656 4.07533 15.5143 4.34791C15.346 4.16666 15.1748 3.98892 15.0007 3.81479C12.2013 1.02112 9.3953 -0.156318 7.7104 0.940001C6.09465 1.99127 5.61621 5.11254 6.29627 9.01846C6.36393 9.4053 6.44032 9.79014 6.52538 10.1726C6.12819 10.2995 5.74493 10.4345 5.37814 10.5782C2.09601 11.8644 0 13.88 0 15.9707C0 18.1299 2.25016 20.2958 5.66864 21.609C5.94578 21.7151 6.22523 21.8133 6.50673 21.9037C6.41531 22.3156 6.33414 22.7304 6.26333 23.1474C5.615 26.9856 6.12129 30.0331 7.73268 31.0777C9.397 32.1564 12.1904 31.0477 14.9103 28.3753C15.1308 28.1581 15.3465 27.9346 15.5572 27.7053C15.8293 28.0004 16.1088 28.287 16.3951 28.5646C19.0299 31.1128 21.6319 32.1417 23.2418 31.0943C24.9045 30.0124 25.4449 26.7385 24.7433 22.7554C24.6881 22.4434 24.6261 22.1329 24.5574 21.8242C24.7536 21.7589 24.9462 21.6917 25.1339 21.6217C28.6877 20.2984 31 18.1588 31 15.9707C31 13.8723 28.8363 11.8432 25.4882 10.5477V10.5477ZM24.7174 20.2089C24.5479 20.272 24.374 20.3328 24.1967 20.392C23.8044 18.996 23.2749 17.5116 22.627 15.9779C23.2453 14.4807 23.7544 13.0153 24.1357 11.6284C24.4528 11.7316 24.7605 11.8403 25.0572 11.955C27.9259 13.0651 29.6757 14.7061 29.6757 15.9707C29.6757 17.3175 27.7859 19.0661 24.7174 20.2089V20.2089ZM23.4442 23.0445C23.7545 24.8057 23.7987 26.3981 23.5932 27.6431C23.4086 28.7617 23.0374 29.5074 22.5782 29.8062C21.6013 30.4418 19.5121 29.6156 17.2589 27.4363C16.9925 27.1782 16.7326 26.9118 16.4794 26.6374C17.353 25.5637 18.2259 24.3155 19.078 22.9291C20.5766 22.7797 21.9924 22.5352 23.2764 22.2016C23.3396 22.4884 23.3958 22.7696 23.4442 23.0445V23.0445ZM10.5686 29.6963C9.61412 30.0751 8.85389 30.086 8.39434 29.7882C7.41651 29.1544 7.01 26.7074 7.56448 23.4251C7.6304 23.0372 7.70587 22.6515 7.79081 22.2683C9.0606 22.5841 10.4661 22.8111 11.9683 22.948C12.8261 24.3046 13.7243 25.5514 14.6295 26.6433C14.4371 26.8525 14.2402 27.0563 14.0389 27.2546C12.8361 28.4363 11.6308 29.2747 10.5686 29.6963V29.6963ZM6.09707 20.2006C4.58546 19.6199 3.3371 18.8652 2.48145 18.0416C1.71251 17.3016 1.3244 16.5668 1.3244 15.9707C1.3244 14.7019 3.00724 13.0836 5.81407 11.9838C6.15471 11.8504 6.51121 11.7245 6.88115 11.6063C7.26914 13.0245 7.77797 14.5074 8.39204 16.0069C7.76998 17.5285 7.25388 19.035 6.86214 20.47C6.60519 20.3873 6.35009 20.2975 6.09707 20.2006V20.2006ZM7.59597 8.7325C7.01339 5.38611 7.40028 2.86179 8.374 2.22823C9.41104 1.55342 11.7043 2.51554 14.1215 4.92785C14.2791 5.08551 14.4342 5.24637 14.5866 5.41034C13.6859 6.4974 12.796 7.735 11.9458 9.08352C10.4878 9.23541 9.0922 9.47931 7.80909 9.80609C7.73004 9.45035 7.65898 9.09241 7.59597 8.73264V8.7325ZM20.968 12.4438C20.6649 11.8554 20.3506 11.2744 20.0253 10.7013C21.0144 10.8418 21.962 11.0284 22.852 11.2566C22.5848 12.2191 22.2518 13.2253 21.8598 14.257C21.5733 13.646 21.276 13.0415 20.968 12.4438V12.4438ZM15.5149 6.47413C16.1257 7.21794 16.7375 8.04831 17.3392 8.94932C16.1185 8.88453 14.8959 8.88425 13.6752 8.9485C14.2776 8.0558 14.8945 7.22651 15.5149 6.47413ZM10.0268 12.454C9.72266 13.0468 9.43086 13.6476 9.15166 14.2557C8.7661 13.2278 8.43612 12.2169 8.16668 11.2408C9.05115 11.0184 9.99435 10.8365 10.9771 10.6985C10.6482 11.2752 10.3313 11.8605 10.0268 12.4539V12.454ZM11.0054 21.3487C9.98999 21.2213 9.03262 21.0488 8.1484 20.8324C8.42207 19.8389 8.75932 18.8065 9.15323 17.7565C9.43355 18.3651 9.72655 18.9662 10.032 19.5593C10.3461 20.1691 10.6714 20.7663 11.0054 21.3487ZM15.5515 25.572C14.9237 24.8109 14.2977 23.9688 13.6863 23.0632C14.2799 23.0893 14.885 23.1026 15.5 23.1026C16.1319 23.1026 16.7565 23.0867 17.3713 23.056C16.7676 23.9779 16.1581 24.8212 15.5515 25.572ZM21.8723 17.7029C22.2867 18.7645 22.6359 19.7914 22.9132 20.7679C22.0145 20.9985 21.044 21.1841 20.0215 21.322C20.3492 20.7382 20.6665 20.1471 20.9732 19.5491C21.2851 18.9413 21.5848 18.3257 21.8723 17.7029V17.7029ZM19.8261 18.8054C19.3565 19.7223 18.8605 20.6217 18.3389 21.5023C17.3941 21.5775 16.4472 21.6149 15.5 21.6144C14.5352 21.6144 13.5969 21.5806 12.6933 21.5147C12.1581 20.6361 11.6526 19.7351 11.178 18.8136H11.1782C10.7058 17.897 10.2646 16.9605 9.85546 16.0062C10.2635 15.0517 10.7034 14.1147 11.1742 13.1974L11.174 13.1975C11.6446 12.28 12.146 11.3828 12.6772 10.508C13.5991 10.4296 14.5444 10.3888 15.4999 10.3888H15.5C16.4598 10.3888 17.4064 10.43 18.328 10.5089C18.8538 11.3824 19.352 12.2765 19.8217 13.1895C20.294 14.1048 20.7397 15.0372 21.1581 15.9851C20.744 16.9427 20.2997 17.8834 19.8261 18.8054V18.8054ZM22.5579 2.18386C23.596 2.85675 23.9997 5.57026 23.3475 9.1287C23.3058 9.35573 23.2591 9.58697 23.2082 9.82147C21.922 9.48775 20.5254 9.23963 19.0632 9.08542C18.2114 7.72207 17.3288 6.48257 16.4427 5.40952C16.6749 5.15794 16.9127 4.91287 17.1557 4.67456C19.4444 2.43606 21.5834 1.5522 22.5579 2.18386V2.18386ZM15.5 12.8593C17.0288 12.8593 18.2682 14.2523 18.2682 15.9707C18.2682 17.689 17.0288 19.082 15.5 19.082C13.9712 19.082 12.7318 17.689 12.7318 15.9707C12.7318 14.2523 13.9712 12.8593 15.5 12.8593V12.8593Z" fill="#00D8FF"/>
</svg>
